<svg xmlns="http://www.w3.org/2000/svg" viewBox="0 0 140 150" width="140" height="150"><defs><filter id="gto-gr" x="-20%" y="-20%" width="140%" height="150%" color-interpolation-filters="sRGB"><feTurbulence type="fractalNoise" baseFrequency="0.900" numOctaves="2" seed="112" result="n"/><feColorMatrix in="n" type="matrix" values="0 0 0 0 0.24 0 0 0 0 0.14 0 0 0 0 0.08 0.70 0 0 0 -0.39" result="d"/><feColorMatrix in="n" type="matrix" values="0 0 0 0 1 0 0 0 0 0.98 0 0 0 0 0.92 -0.75 0 0 0 0.28" result="l"/><feTurbulence type="fractalNoise" baseFrequency="0.160 0.700" numOctaves="3" seed="123" result="f"/><feColorMatrix in="f" type="matrix" values="0 0 0 0 1 0 0 0 0 0.98 0 0 0 0 0.93 0.91 0 0 0 -0.57" result="fl"/><feColorMatrix in="f" type="matrix" values="0 0 0 0 0.3 0 0 0 0 0.18 0 0 0 0 0.1 -0.78 0 0 0 0.21" result="fd"/><feTurbulence type="fractalNoise" baseFrequency="0.0180" numOctaves="2" seed="119" result="m"/><feColorMatrix in="m" type="matrix" values="0 0 0 0 0.3 0 0 0 0 0.17 0 0 0 0 0.08 0.09 0 0 0 -0.04" result="md"/><feColorMatrix in="m" type="matrix" values="0 0 0 0 1 0 0 0 0 0.97 0 0 0 0 0.9 -0.09 0 0 0 0.05" result="ml"/><feTurbulence type="fractalNoise" baseFrequency="0.560 0.208" numOctaves="3" seed="131" result="f2"/><feColorMatrix in="f2" type="matrix" values="0 0 0 0 1 0 0 0 0 0.98 0 0 0 0 0.93 0.65 0 0 0 -0.42" result="fl2"/><feMerge result="g"><feMergeNode in="md"/><feMergeNode in="ml"/><feMergeNode in="fd"/><feMergeNode in="fl"/><feMergeNode in="fl2"/><feMergeNode in="d"/><feMergeNode in="l"/></feMerge><feComposite in="g" in2="SourceGraphic" operator="in" result="gc"/><feMerge><feMergeNode in="SourceGraphic"/><feMergeNode in="gc"/></feMerge></filter><filter id="gto-sh" x="-25%" y="-25%" width="150%" height="160%" color-interpolation-filters="sRGB"><feGaussianBlur in="SourceAlpha" stdDeviation="3"/><feOffset dx="0" dy="3" result="b"/><feFlood flood-color="#3A2216" flood-opacity="0.3"/><feComposite in2="b" operator="in" result="s"/><feMerge><feMergeNode in="s"/><feMergeNode in="SourceGraphic"/></feMerge></filter><filter id="gto-sh2" x="-25%" y="-25%" width="150%" height="160%" color-interpolation-filters="sRGB"><feGaussianBlur in="SourceAlpha" stdDeviation="7"/><feOffset dx="0" dy="8" result="b"/><feFlood flood-color="#3A2216" flood-opacity="0.28"/><feComposite in2="b" operator="in" result="s"/><feMerge><feMergeNode in="s"/><feMergeNode in="SourceGraphic"/></feMerge></filter><filter id="gto-bl" x="-50%" y="-50%" width="200%" height="200%"><feGaussianBlur stdDeviation="6"/></filter><filter id="gto-cut" x="-20%" y="-20%" width="140%" height="150%" color-interpolation-filters="sRGB"><feMorphology in="SourceAlpha" operator="dilate" radius="2.4" result="dil"/><feTurbulence type="fractalNoise" baseFrequency="0.22" numOctaves="2" seed="114" result="tn"/><feDisplacementMap in="dil" in2="tn" scale="3.5" xChannelSelector="R" yChannelSelector="G" result="rg"/><feFlood flood-color="#FFF8EA" flood-opacity="0.95"/><feComposite in2="rg" operator="in" result="rim"/><feGaussianBlur in="rg" stdDeviation="3"/><feOffset dx="0" dy="3" result="b"/><feFlood flood-color="#3A2216" flood-opacity="0.3"/><feComposite in2="b" operator="in" result="s"/><feMerge><feMergeNode in="s"/><feMergeNode in="rim"/><feMergeNode in="SourceGraphic"/></feMerge></filter></defs><g filter="url(#gto-gr)"><g filter="url(#gto-cut)"><g><path d="M127.5,82C127.4,86.7 123.9,91.4 122.5,96.2C121,101 121.4,106.7 118.8,110.8C116.1,115 110.9,118 106.7,120.9C102.4,123.9 97.8,126.4 93.1,128.5C88.3,130.6 83.2,132.9 78,133.5C72.9,134 67.4,132.6 62.2,131.6C57.1,130.7 52.1,129.5 47.3,127.7C42.5,125.9 37.5,123.8 33.6,120.7C29.7,117.6 26.9,113.2 23.9,109.3C20.9,105.3 17.1,101.3 15.5,96.7C13.9,92.2 14.2,86.8 14.4,82C14.6,77.2 15.2,72.2 16.8,67.6C18.3,63.1 20.8,58.6 23.7,54.6C26.6,50.7 30.4,47.3 34.1,43.9C37.9,40.5 41.7,36.8 46.3,34.3C50.9,31.9 56.5,29.8 61.8,29.4C67,28.9 72.5,30.8 77.9,31.6C83.2,32.4 89.1,32 93.8,34C98.5,36 102.1,40.4 106.1,43.6C110.2,46.9 115.3,49.5 118.1,53.6C120.8,57.6 121,63 122.6,67.8C124.2,72.5 127.5,77.3 127.5,82Z" fill="#C0412C"/><path d="M118.1,79.8C118.3,84.1 118,88.7 116.8,92.9C115.5,97 113.1,101.1 110.6,104.8C108,108.5 104.8,112 101.3,115C97.8,118 93.7,121 89.4,122.9C85,124.7 79.8,125.9 75.1,126.1C70.3,126.3 65.4,124.9 60.8,124C56.1,123.1 51.6,122.2 47.3,120.6C43,119 38.5,117 34.9,114.3C31.3,111.6 28.6,107.9 25.7,104.4C22.9,100.8 19.2,97.3 17.6,93.2C16.1,89.1 16.1,84.1 16.4,79.8C16.8,75.4 18,70.9 19.5,66.9C21.1,62.8 23.2,58.7 25.9,55.2C28.5,51.7 32,48.7 35.5,45.8C38.9,42.9 42.5,39.8 46.7,37.6C50.8,35.5 55.7,33.1 60.3,32.8C65,32.4 70,34.6 74.7,35.5C79.5,36.4 84.3,36.5 88.6,38.1C92.9,39.8 96.7,42.7 100.4,45.5C104,48.2 108.1,51.1 110.5,54.7C113,58.3 113.9,62.9 115.2,67.1C116.4,71.3 117.8,75.5 118.1,79.8Z" fill="#EC5A3C"/></g><path d="M35.3,76.4 Q39.2,48.4 63.3,42.8 Q44.8,56.8 42,79.2Z" fill="#F8866A" opacity="0.9"/><path d="M70,38.3 L76.7,38.3 L88.6,45.8 L72.1,41.8 L63,50.2 L64.6,40.5 L46.2,38.3 L64.6,36.1 L62.9,26.3 L72.1,34.8 L89.2,30.6 L76.7,38.3Z" fill="#468A34"/><path d="M70,37.2 L74.2,38 L81,45.3 L69.8,39.4 L58.6,44.5 L65.7,37.8 L52.7,34 L67.5,35.3 L70.6,28 L72.8,35.4 L88.7,34.5 L74.2,38Z" fill="#62AE48"/><path d="M67.2,34.4 L71.1,19.3 L76.7,20.4 L73.9,36.1Z" fill="#468A34"/></g></g></svg>