<svg xmlns="http://www.w3.org/2000/svg" viewBox="0 0 600 700" width="600" height="700"><defs><filter id="gab-es-gr" x="-20%" y="-20%" width="140%" height="150%" color-interpolation-filters="sRGB"><feTurbulence type="fractalNoise" baseFrequency="1.000" numOctaves="2" seed="56" result="n"/><feColorMatrix in="n" type="matrix" values="0 0 0 0 0.24 0 0 0 0 0.14 0 0 0 0 0.08 0.45 0 0 0 -0.25" result="d"/><feColorMatrix in="n" type="matrix" values="0 0 0 0 1 0 0 0 0 0.98 0 0 0 0 0.92 -0.48 0 0 0 0.18" result="l"/><feTurbulence type="fractalNoise" baseFrequency="0.180 0.800" numOctaves="3" seed="67" result="f"/><feColorMatrix in="f" type="matrix" values="0 0 0 0 1 0 0 0 0 0.98 0 0 0 0 0.93 0.56 0 0 0 -0.35" result="fl"/><feColorMatrix in="f" type="matrix" values="0 0 0 0 0.3 0 0 0 0 0.18 0 0 0 0 0.1 -0.48 0 0 0 0.13" result="fd"/><feTurbulence type="fractalNoise" baseFrequency="0.0120" numOctaves="2" seed="63" result="m"/><feColorMatrix in="m" type="matrix" values="0 0 0 0 0.3 0 0 0 0 0.17 0 0 0 0 0.08 0.05 0 0 0 -0.02" result="md"/><feColorMatrix in="m" type="matrix" values="0 0 0 0 1 0 0 0 0 0.97 0 0 0 0 0.9 -0.05 0 0 0 0.03" result="ml"/><feTurbulence type="fractalNoise" baseFrequency="0.640 0.234" numOctaves="3" seed="75" result="f2"/><feColorMatrix in="f2" type="matrix" values="0 0 0 0 1 0 0 0 0 0.98 0 0 0 0 0.93 0.40 0 0 0 -0.26" result="fl2"/><feMerge result="g"><feMergeNode in="md"/><feMergeNode in="ml"/><feMergeNode in="fd"/><feMergeNode in="fl"/><feMergeNode in="fl2"/><feMergeNode in="d"/><feMergeNode in="l"/></feMerge><feComposite in="g" in2="SourceGraphic" operator="in" result="gc"/><feMerge><feMergeNode in="SourceGraphic"/><feMergeNode in="gc"/></feMerge></filter><filter id="gab-es-sh" x="-25%" y="-25%" width="150%" height="160%" color-interpolation-filters="sRGB"><feGaussianBlur in="SourceAlpha" stdDeviation="2.5"/><feOffset dx="0" dy="3" result="b"/><feFlood flood-color="#3A2216" flood-opacity="0.3"/><feComposite in2="b" operator="in" result="s"/><feMerge><feMergeNode in="s"/><feMergeNode in="SourceGraphic"/></feMerge></filter><filter id="gab-es-sh2" x="-25%" y="-25%" width="150%" height="160%" color-interpolation-filters="sRGB"><feGaussianBlur in="SourceAlpha" stdDeviation="7"/><feOffset dx="0" dy="8" result="b"/><feFlood flood-color="#3A2216" flood-opacity="0.28"/><feComposite in2="b" operator="in" result="s"/><feMerge><feMergeNode in="s"/><feMergeNode in="SourceGraphic"/></feMerge></filter><filter id="gab-es-bl" x="-50%" y="-50%" width="200%" height="200%"><feGaussianBlur stdDeviation="6"/></filter><filter id="gab-es-cut" x="-20%" y="-20%" width="140%" height="150%" color-interpolation-filters="sRGB"><feMorphology in="SourceAlpha" operator="dilate" radius="2.2" result="dil"/><feTurbulence type="fractalNoise" baseFrequency="0.22" numOctaves="2" seed="58" result="tn"/><feDisplacementMap in="dil" in2="tn" scale="4.0" xChannelSelector="R" yChannelSelector="G" result="rg"/><feFlood flood-color="#FFF8EA" flood-opacity="0.95"/><feComposite in2="rg" operator="in" result="rim"/><feGaussianBlur in="rg" stdDeviation="2.5"/><feOffset dx="0" dy="3" result="b"/><feFlood flood-color="#3A2216" flood-opacity="0.3"/><feComposite in2="b" operator="in" result="s"/><feMerge><feMergeNode in="s"/><feMergeNode in="rim"/><feMergeNode in="SourceGraphic"/></feMerge></filter></defs><g filter="url(#gab-es-gr)"><g filter="url(#gab-es-sh)"><path d="M280.7,326C280.7,329.6 280.1,333.4 279.3,336.9C278.4,340.4 277.3,344 275.6,347C274,350 271.6,352.7 269.2,354.9C266.8,357.2 264.1,359 261.4,360.7C258.6,362.3 255.7,364.2 252.7,364.7C249.7,365.2 246.5,364.3 243.4,363.7C240.4,363.1 237.2,362.6 234.5,361C231.7,359.5 229.3,357 227.1,354.6C224.8,352.1 222.8,349.4 221,346.5C219.2,343.6 217.3,340.4 216.4,337C215.5,333.6 215.5,329.6 215.6,326C215.6,322.4 216,318.7 216.7,315.1C217.5,311.6 218.5,307.9 220.1,304.8C221.7,301.7 224,298.8 226.4,296.6C228.8,294.3 231.8,292.7 234.6,291.3C237.4,289.8 240.4,288.4 243.4,288C246.4,287.6 249.5,288.3 252.5,288.7C255.6,289.2 258.8,289.3 261.7,290.6C264.5,292 267.2,294.2 269.5,296.6C271.9,299 274,301.9 275.7,304.9C277.4,308 278.7,311.5 279.6,315C280.4,318.6 280.8,322.4 280.7,326Z" fill="#2E201B"/><clipPath id="gab-es-c248"><ellipse cx="248" cy="326" rx="32.48" ry="38.419999999999995"/></clipPath><g clip-path="url(#gab-es-c248)"><ellipse cx="248" cy="351" rx="29.2" ry="21.5" fill="#6A4636"/><ellipse cx="248" cy="354.4" rx="20.5" ry="13.4" fill="#8F6046"/></g><circle cx="257.4" cy="312.6" r="17.5" fill="#FFFDF7"/><circle cx="237" cy="339.4" r="7.5" fill="#FFFDF7"/><circle cx="265.2" cy="331" r="4.4" fill="#FFFDF7" opacity="0.9"/></g><path d="M218.8,304.2 Q200.8,292.8 192.8,297.7 Q204.8,300.9 214.8,310.7Z" fill="#2E201B"/><path d="M216.8,315.5 Q196.8,310.7 190.8,317.1 Q204.8,318.8 216.8,322Z" fill="#2E201B"/><g filter="url(#gab-es-sh)"><path d="M225.6,267.1 Q244,249.1 262.4,267.1 A5.5,5.5 0 0 1 254.7,274.8 Q244,273.3 233.3,274.8 A5.5,5.5 0 0 1 225.6,267.1Z" fill="#C99878" transform="rotate(8 244 267.1)"/></g><g filter="url(#gab-es-sh)"><path d="M384.7,326C384.7,329.6 383.9,333.3 383.1,336.8C382.2,340.3 381.2,343.9 379.6,347C377.9,350 375.6,352.6 373.2,355C370.9,357.4 368.3,359.7 365.6,361.1C362.8,362.6 359.6,363.1 356.6,363.7C353.5,364.2 350.3,365.2 347.3,364.6C344.3,364.1 341.5,362.1 338.7,360.4C335.9,358.8 333.1,357.3 330.8,355C328.4,352.7 326.3,349.9 324.6,346.9C322.8,343.9 321.2,340.5 320.3,337C319.4,333.5 319,329.6 319.1,326C319.1,322.4 319.7,318.6 320.7,315.1C321.7,311.7 323.2,308.4 324.8,305.3C326.5,302.3 328.4,299.3 330.6,296.8C332.8,294.3 335.5,291.9 338.3,290.5C341.1,289.1 344.4,288.7 347.4,288.3C350.5,288 353.6,287.7 356.6,288.1C359.6,288.5 362.9,289.2 365.6,290.7C368.4,292.1 371,294.5 373.3,296.9C375.6,299.3 378.1,301.9 379.7,304.9C381.4,308 382.4,311.6 383.2,315.2C384,318.7 384.7,322.4 384.7,326Z" fill="#2E201B"/><clipPath id="gab-es-c352"><ellipse cx="352" cy="326" rx="32.48" ry="38.419999999999995"/></clipPath><g clip-path="url(#gab-es-c352)"><ellipse cx="352" cy="351" rx="29.2" ry="21.5" fill="#6A4636"/><ellipse cx="352" cy="354.4" rx="20.5" ry="13.4" fill="#8F6046"/></g><circle cx="361.4" cy="312.6" r="17.5" fill="#FFFDF7"/><circle cx="341" cy="339.4" r="7.5" fill="#FFFDF7"/><circle cx="369.2" cy="331" r="4.4" fill="#FFFDF7" opacity="0.9"/></g><path d="M381.2,304.2 Q399.2,292.8 407.2,297.7 Q395.2,300.9 385.2,310.7Z" fill="#2E201B"/><path d="M383.2,315.5 Q403.2,310.7 409.2,317.1 Q395.2,318.8 383.2,322Z" fill="#2E201B"/><g filter="url(#gab-es-sh)"><path d="M337.6,267.1 Q356,249.1 374.4,267.1 A5.5,5.5 0 0 1 366.7,274.8 Q356,273.3 345.3,274.8 A5.5,5.5 0 0 1 337.6,267.1Z" fill="#C99878" transform="rotate(-8 356 267.1)"/></g></g></svg>