<svg xmlns="http://www.w3.org/2000/svg" viewBox="0 0 360 110" width="360" height="110"><defs><filter id="cwr-gr" x="-20%" y="-20%" width="140%" height="150%" color-interpolation-filters="sRGB"><feTurbulence type="fractalNoise" baseFrequency="1.000" numOctaves="2" seed="652" result="n"/><feColorMatrix in="n" type="matrix" values="0 0 0 0 0.24 0 0 0 0 0.14 0 0 0 0 0.08 0.45 0 0 0 -0.25" result="d"/><feColorMatrix in="n" type="matrix" values="0 0 0 0 1 0 0 0 0 0.98 0 0 0 0 0.92 -0.48 0 0 0 0.18" result="l"/><feTurbulence type="fractalNoise" baseFrequency="0.180 0.800" numOctaves="3" seed="663" result="f"/><feColorMatrix in="f" type="matrix" values="0 0 0 0 1 0 0 0 0 0.98 0 0 0 0 0.93 0.56 0 0 0 -0.35" result="fl"/><feColorMatrix in="f" type="matrix" values="0 0 0 0 0.3 0 0 0 0 0.18 0 0 0 0 0.1 -0.48 0 0 0 0.13" result="fd"/><feTurbulence type="fractalNoise" baseFrequency="0.0120" numOctaves="2" seed="659" result="m"/><feColorMatrix in="m" type="matrix" values="0 0 0 0 0.3 0 0 0 0 0.17 0 0 0 0 0.08 0.05 0 0 0 -0.02" result="md"/><feColorMatrix in="m" type="matrix" values="0 0 0 0 1 0 0 0 0 0.97 0 0 0 0 0.9 -0.05 0 0 0 0.03" result="ml"/><feTurbulence type="fractalNoise" baseFrequency="0.640 0.234" numOctaves="3" seed="671" result="f2"/><feColorMatrix in="f2" type="matrix" values="0 0 0 0 1 0 0 0 0 0.98 0 0 0 0 0.93 0.40 0 0 0 -0.26" result="fl2"/><feMerge result="g"><feMergeNode in="md"/><feMergeNode in="ml"/><feMergeNode in="fd"/><feMergeNode in="fl"/><feMergeNode in="fl2"/><feMergeNode in="d"/><feMergeNode in="l"/></feMerge><feComposite in="g" in2="SourceGraphic" operator="in" result="gc"/><feMerge><feMergeNode in="SourceGraphic"/><feMergeNode in="gc"/></feMerge></filter><filter id="cwr-sh" x="-25%" y="-25%" width="150%" height="160%" color-interpolation-filters="sRGB"><feGaussianBlur in="SourceAlpha" stdDeviation="3.5"/><feOffset dx="0" dy="4" result="b"/><feFlood flood-color="#3A2216" flood-opacity="0.33"/><feComposite in2="b" operator="in" result="s"/><feMerge><feMergeNode in="s"/><feMergeNode in="SourceGraphic"/></feMerge></filter><filter id="cwr-sh2" x="-25%" y="-25%" width="150%" height="160%" color-interpolation-filters="sRGB"><feGaussianBlur in="SourceAlpha" stdDeviation="7"/><feOffset dx="0" dy="8" result="b"/><feFlood flood-color="#3A2216" flood-opacity="0.28"/><feComposite in2="b" operator="in" result="s"/><feMerge><feMergeNode in="s"/><feMergeNode in="SourceGraphic"/></feMerge></filter><filter id="cwr-bl" x="-50%" y="-50%" width="200%" height="200%"><feGaussianBlur stdDeviation="6"/></filter><filter id="cwr-cut" x="-20%" y="-20%" width="140%" height="150%" color-interpolation-filters="sRGB"><feMorphology in="SourceAlpha" operator="dilate" radius="2.4" result="dil"/><feTurbulence type="fractalNoise" baseFrequency="0.22" numOctaves="2" seed="654" result="tn"/><feDisplacementMap in="dil" in2="tn" scale="3" xChannelSelector="R" yChannelSelector="G" result="rg"/><feFlood flood-color="#FFF8EA" flood-opacity="0.95"/><feComposite in2="rg" operator="in" result="rim"/><feGaussianBlur in="rg" stdDeviation="3.5"/><feOffset dx="0" dy="4" result="b"/><feFlood flood-color="#3A2216" flood-opacity="0.33"/><feComposite in2="b" operator="in" result="s"/><feMerge><feMergeNode in="s"/><feMergeNode in="rim"/><feMergeNode in="SourceGraphic"/></feMerge></filter></defs><g filter="url(#cwr-gr)"><g filter="url(#cwr-cut)"><path d="M35,21C44.1,20.2 64,19.5 77.9,19.3C91.8,19.1 104.6,19.6 118.3,19.9C131.9,20.1 146.3,21 159.9,20.8C173.4,20.6 185.6,18.8 199.4,18.7C213.2,18.5 228.6,19.8 242.7,19.8C256.7,19.8 270.1,18.5 283.6,18.6C297.1,18.7 315.1,19.6 323.8,20.6C332.6,21.6 332.3,22.9 336.2,24.7C340.2,26.6 345.6,28.1 347.6,31.7C349.7,35.2 348.1,40.8 348.7,46.1C349.3,51.4 351.7,58.6 351.2,63.7C350.7,68.8 348.3,73.1 345.7,76.8C343.1,80.5 339.3,83.5 335.7,85.7C332,87.9 332.8,89.4 323.8,90C314.9,90.6 295.9,89.3 282.1,89.2C268.3,89.2 254.6,90 240.9,89.9C227.2,89.8 213.4,88.6 200,88.7C186.6,88.7 173.9,90.1 160.4,90.2C146.8,90.2 132.3,89 118.7,89.1C105,89.3 92.5,90.9 78.5,91C64.6,91.1 44.1,90.2 34.9,89.5C25.8,88.9 27,89.2 23.6,87.1C20.2,85 16.8,80.6 14.7,76.8C12.6,73 11.8,69.6 10.9,64.5C10,59.4 8.8,51.3 9.4,46.2C10.1,41.2 12.3,37.7 14.6,34C16.8,30.2 19.6,25.9 23,23.7C26.4,21.6 25.8,21.7 35,21Z" fill="#FFFDF7"/><rect x="30" y="28" width="3" height="54" fill="#F1F1EE" opacity="0.7"/><rect x="52" y="28" width="3" height="54" fill="#F1F1EE" opacity="0.7"/><rect x="74" y="28" width="3" height="54" fill="#F1F1EE" opacity="0.7"/><rect x="96" y="28" width="3" height="54" fill="#F1F1EE" opacity="0.7"/><rect x="118" y="28" width="3" height="54" fill="#F1F1EE" opacity="0.7"/><rect x="140" y="28" width="3" height="54" fill="#F1F1EE" opacity="0.7"/><rect x="162" y="28" width="3" height="54" fill="#F1F1EE" opacity="0.7"/><rect x="184" y="28" width="3" height="54" fill="#F1F1EE" opacity="0.7"/><rect x="206" y="28" width="3" height="54" fill="#F1F1EE" opacity="0.7"/><rect x="228" y="28" width="3" height="54" fill="#F1F1EE" opacity="0.7"/><rect x="250" y="28" width="3" height="54" fill="#F1F1EE" opacity="0.7"/><rect x="272" y="28" width="3" height="54" fill="#F1F1EE" opacity="0.7"/><rect x="294" y="28" width="3" height="54" fill="#F1F1EE" opacity="0.7"/><rect x="316" y="28" width="3" height="54" fill="#F1F1EE" opacity="0.7"/><path d="M16.9,74.9C24.1,74.5 42.5,73.2 56.1,73.2C69.7,73.1 84.8,74.4 98.7,74.5C112.5,74.5 125.7,73.7 139.3,73.6C152.9,73.6 166.6,74.3 180.2,74.2C193.8,74.2 207.6,73.4 221.2,73.3C234.8,73.2 248.1,73.5 261.9,73.8C275.6,74.1 289.6,74.9 303.4,75C317.3,75 337.7,74.2 344.9,74.1C352.1,74 346.3,74 346.9,74.3C347.5,74.7 347.8,75.2 348.3,76.1C348.8,76.9 349.7,78.5 349.9,79.6C350.2,80.8 349.9,81.9 349.8,82.8C349.6,83.7 349.8,84.5 349.2,85.1C348.7,85.7 347.4,85.9 346.5,86.2C345.5,86.6 350.9,86.8 343.7,87.3C336.4,87.7 316.6,89 303,89C289.5,89 275.9,87.4 262.3,87.4C248.8,87.3 235.4,88.4 221.8,88.6C208.1,88.8 194.2,88.8 180.5,88.8C166.8,88.8 153.3,88.6 139.5,88.6C125.7,88.6 111.3,89.2 97.7,89C84.1,88.8 71.5,87.4 57.9,87.3C44.4,87.2 24,88.4 16.5,88.4C9,88.4 13.9,87.7 12.9,87.3C12,86.8 11.3,86.6 10.8,85.8C10.3,85.1 10.2,83.5 10,82.7C9.8,81.8 9.4,81.7 9.7,80.8C10,79.8 11,77.8 11.6,76.9C12.2,76.1 12.3,76 13.1,75.6C14,75.3 9.7,75.3 16.9,74.9Z" fill="#F1F1EE" opacity="0.8"/></g></g></svg>