<svg xmlns="http://www.w3.org/2000/svg" viewBox="0 0 520 520" width="520" height="520"><defs><filter id="ley-gr" x="-20%" y="-20%" width="140%" height="150%" color-interpolation-filters="sRGB"><feTurbulence type="fractalNoise" baseFrequency="1.000" numOctaves="2" seed="321" result="n"/><feColorMatrix in="n" type="matrix" values="0 0 0 0 0.24 0 0 0 0 0.14 0 0 0 0 0.08 0.45 0 0 0 -0.25" result="d"/><feColorMatrix in="n" type="matrix" values="0 0 0 0 1 0 0 0 0 0.98 0 0 0 0 0.92 -0.48 0 0 0 0.18" result="l"/><feTurbulence type="fractalNoise" baseFrequency="0.180 0.800" numOctaves="3" seed="332" result="f"/><feColorMatrix in="f" type="matrix" values="0 0 0 0 1 0 0 0 0 0.98 0 0 0 0 0.93 0.56 0 0 0 -0.35" result="fl"/><feColorMatrix in="f" type="matrix" values="0 0 0 0 0.3 0 0 0 0 0.18 0 0 0 0 0.1 -0.48 0 0 0 0.13" result="fd"/><feTurbulence type="fractalNoise" baseFrequency="0.0120" numOctaves="2" seed="328" result="m"/><feColorMatrix in="m" type="matrix" values="0 0 0 0 0.3 0 0 0 0 0.17 0 0 0 0 0.08 0.05 0 0 0 -0.02" result="md"/><feColorMatrix in="m" type="matrix" values="0 0 0 0 1 0 0 0 0 0.97 0 0 0 0 0.9 -0.05 0 0 0 0.03" result="ml"/><feTurbulence type="fractalNoise" baseFrequency="0.640 0.234" numOctaves="3" seed="340" result="f2"/><feColorMatrix in="f2" type="matrix" values="0 0 0 0 1 0 0 0 0 0.98 0 0 0 0 0.93 0.40 0 0 0 -0.26" result="fl2"/><feMerge result="g"><feMergeNode in="md"/><feMergeNode in="ml"/><feMergeNode in="fd"/><feMergeNode in="fl"/><feMergeNode in="fl2"/><feMergeNode in="d"/><feMergeNode in="l"/></feMerge><feComposite in="g" in2="SourceGraphic" operator="in" result="gc"/><feMerge><feMergeNode in="SourceGraphic"/><feMergeNode in="gc"/></feMerge></filter><filter id="ley-sh" x="-25%" y="-25%" width="150%" height="160%" color-interpolation-filters="sRGB"><feGaussianBlur in="SourceAlpha" stdDeviation="3.5"/><feOffset dx="0" dy="4" result="b"/><feFlood flood-color="#3A2216" flood-opacity="0.25"/><feComposite in2="b" operator="in" result="s"/><feMerge><feMergeNode in="s"/><feMergeNode in="SourceGraphic"/></feMerge></filter><filter id="ley-sh2" x="-25%" y="-25%" width="150%" height="160%" color-interpolation-filters="sRGB"><feGaussianBlur in="SourceAlpha" stdDeviation="7"/><feOffset dx="0" dy="8" result="b"/><feFlood flood-color="#3A2216" flood-opacity="0.2"/><feComposite in2="b" operator="in" result="s"/><feMerge><feMergeNode in="s"/><feMergeNode in="SourceGraphic"/></feMerge></filter><filter id="ley-bl" x="-50%" y="-50%" width="200%" height="200%"><feGaussianBlur stdDeviation="6"/></filter><filter id="ley-cut" x="-20%" y="-20%" width="140%" height="150%" color-interpolation-filters="sRGB"><feMorphology in="SourceAlpha" operator="dilate" radius="2" result="dil"/><feTurbulence type="fractalNoise" baseFrequency="0.22" numOctaves="2" seed="323" result="tn"/><feDisplacementMap in="dil" in2="tn" scale="3" xChannelSelector="R" yChannelSelector="G" result="rg"/><feFlood flood-color="#FFF8EA" flood-opacity="0.95"/><feComposite in2="rg" operator="in" result="rim"/><feGaussianBlur in="rg" stdDeviation="3.5"/><feOffset dx="0" dy="4" result="b"/><feFlood flood-color="#3A2216" flood-opacity="0.25"/><feComposite in2="b" operator="in" result="s"/><feMerge><feMergeNode in="s"/><feMergeNode in="rim"/><feMergeNode in="SourceGraphic"/></feMerge></filter><clipPath id="ley-lc"><circle cx="260" cy="260" r="250"/></clipPath></defs><g filter="url(#ley-gr)"><g clip-path="url(#ley-lc)"><rect x="0" y="0" width="520" height="520" fill="#D9D9D6"/><path d="M464.5,140C464.3,143.5 467.9,147.1 463.7,150.4C459.6,153.7 448.5,156.7 439.5,159.7C430.5,162.8 422.2,166 410,168.6C397.8,171.1 382.7,173.7 366.3,175.1C350,176.5 329.7,176.5 312,177C294.3,177.5 278,177.6 260,178.1C242,178.5 220.9,180.6 203.8,179.9C186.7,179.2 172.3,175.9 157.5,173.8C142.8,171.7 130.2,169.7 115.5,167.5C100.7,165.4 78.7,163.9 69.1,161C59.5,158.1 62.1,153.8 57.8,150.3C53.4,146.8 43,143.4 42.9,140C42.9,136.6 52.2,133.1 57.6,129.7C63.1,126.3 65.8,122.5 75.6,119.7C85.4,116.9 103.7,115.2 116.7,112.7C129.7,110.2 139.1,107 153.6,104.9C168.1,102.8 185.9,100.8 203.6,99.9C221.4,99.1 241.3,99.8 260,99.9C278.7,100 297.9,99.6 315.7,100.4C333.5,101.2 352.4,102.7 366.8,104.8C381.2,106.9 388.7,110.5 402,112.9C415.3,115.4 436.1,116.7 446.6,119.5C457,122.3 461.7,126.1 464.7,129.6C467.7,133 464.7,136.5 464.5,140Z" fill="#B4B4B0" opacity="0.35"/><path d="M90,128 Q260,70 430,128" fill="none" stroke="#B4B4B0" stroke-width="22" stroke-linecap="round" stroke-linejoin="round" opacity="0.7"/><path d="M445,380C444.7,383 439,386 433.5,388.9C428.1,391.8 423.1,395 412.1,397.5C401.2,399.9 383.8,401.8 367.8,403.4C351.8,405.1 334.1,406.2 316.2,407.3C298.2,408.3 279.6,409.3 260,409.7C240.4,410.1 218,410.5 198.8,409.7C179.7,408.9 161.1,406.9 145,405C128.9,403.1 112.3,400.8 102.2,398.1C92.1,395.4 89.8,392 84.3,389C78.8,386 69.5,383 69.3,380C69.1,377 76.3,373.8 83.3,370.9C90.3,368.1 99.8,365.3 111.3,362.9C122.9,360.6 137.4,358.5 152.7,356.7C168,354.9 185.1,353.6 203,352.3C220.8,351 240.4,349 260,348.7C279.6,348.4 301.5,349.5 320.6,350.5C339.8,351.6 358.8,353.1 375.1,355C391.4,356.9 408.3,359.2 418.3,361.8C428.3,364.5 430.7,368 435.2,371C439.6,374 445.3,377 445,380Z" fill="#F1F1EE" opacity="0.6"/></g></g></svg>