<svg xmlns="http://www.w3.org/2000/svg" viewBox="0 0 70 70" width="70" height="70"><defs><filter id="ospt-gr" x="-20%" y="-20%" width="140%" height="150%" color-interpolation-filters="sRGB"><feTurbulence type="fractalNoise" baseFrequency="1.000" numOctaves="2" seed="409" result="n"/><feColorMatrix in="n" type="matrix" values="0 0 0 0 0.24 0 0 0 0 0.14 0 0 0 0 0.08 0.45 0 0 0 -0.25" result="d"/><feColorMatrix in="n" type="matrix" values="0 0 0 0 1 0 0 0 0 0.98 0 0 0 0 0.92 -0.48 0 0 0 0.18" result="l"/><feTurbulence type="fractalNoise" baseFrequency="0.180 0.800" numOctaves="3" seed="420" result="f"/><feColorMatrix in="f" type="matrix" values="0 0 0 0 1 0 0 0 0 0.98 0 0 0 0 0.93 0.56 0 0 0 -0.35" result="fl"/><feColorMatrix in="f" type="matrix" values="0 0 0 0 0.3 0 0 0 0 0.18 0 0 0 0 0.1 -0.48 0 0 0 0.13" result="fd"/><feTurbulence type="fractalNoise" baseFrequency="0.0120" numOctaves="2" seed="416" result="m"/><feColorMatrix in="m" type="matrix" values="0 0 0 0 0.3 0 0 0 0 0.17 0 0 0 0 0.08 0.05 0 0 0 -0.02" result="md"/><feColorMatrix in="m" type="matrix" values="0 0 0 0 1 0 0 0 0 0.97 0 0 0 0 0.9 -0.05 0 0 0 0.03" result="ml"/><feTurbulence type="fractalNoise" baseFrequency="0.640 0.234" numOctaves="3" seed="428" result="f2"/><feColorMatrix in="f2" type="matrix" values="0 0 0 0 1 0 0 0 0 0.98 0 0 0 0 0.93 0.40 0 0 0 -0.26" result="fl2"/><feMerge result="g"><feMergeNode in="md"/><feMergeNode in="ml"/><feMergeNode in="fd"/><feMergeNode in="fl"/><feMergeNode in="fl2"/><feMergeNode in="d"/><feMergeNode in="l"/></feMerge><feComposite in="g" in2="SourceGraphic" operator="in" result="gc"/><feMerge><feMergeNode in="SourceGraphic"/><feMergeNode in="gc"/></feMerge></filter><filter id="ospt-sh" x="-25%" y="-25%" width="150%" height="160%" color-interpolation-filters="sRGB"><feGaussianBlur in="SourceAlpha" stdDeviation="3.5"/><feOffset dx="0" dy="4" result="b"/><feFlood flood-color="#3A2216" flood-opacity="0.33"/><feComposite in2="b" operator="in" result="s"/><feMerge><feMergeNode in="s"/><feMergeNode in="SourceGraphic"/></feMerge></filter><filter id="ospt-sh2" x="-25%" y="-25%" width="150%" height="160%" color-interpolation-filters="sRGB"><feGaussianBlur in="SourceAlpha" stdDeviation="7"/><feOffset dx="0" dy="8" result="b"/><feFlood flood-color="#3A2216" flood-opacity="0.28"/><feComposite in2="b" operator="in" result="s"/><feMerge><feMergeNode in="s"/><feMergeNode in="SourceGraphic"/></feMerge></filter><filter id="ospt-bl" x="-50%" y="-50%" width="200%" height="200%"><feGaussianBlur stdDeviation="6"/></filter><filter id="ospt-cut" x="-20%" y="-20%" width="140%" height="150%" color-interpolation-filters="sRGB"><feMorphology in="SourceAlpha" operator="dilate" radius="2.2" result="dil"/><feTurbulence type="fractalNoise" baseFrequency="0.22" numOctaves="2" seed="411" result="tn"/><feDisplacementMap in="dil" in2="tn" scale="4.0" xChannelSelector="R" yChannelSelector="G" result="rg"/><feFlood flood-color="#FFF8EA" flood-opacity="0.95"/><feComposite in2="rg" operator="in" result="rim"/><feGaussianBlur in="rg" stdDeviation="3.5"/><feOffset dx="0" dy="4" result="b"/><feFlood flood-color="#3A2216" flood-opacity="0.33"/><feComposite in2="b" operator="in" result="s"/><feMerge><feMergeNode in="s"/><feMergeNode in="rim"/><feMergeNode in="SourceGraphic"/></feMerge></filter></defs><g filter="url(#ospt-gr)"><path d="M59.5,35C60,38.4 61,42.7 59.7,46C58.5,49.3 55.1,52.6 51.9,54.6C48.7,56.5 44.3,56.8 40.6,57.5C36.8,58.1 32.8,59 29.2,58.4C25.6,57.7 22,55.7 18.9,53.6C15.9,51.5 12.9,48.8 11,45.7C9.2,42.6 7.5,38.4 7.8,35C8.1,31.6 11.1,28.2 13.1,25.3C15.1,22.4 17.4,20.1 20,17.7C22.6,15.2 25.5,11.3 28.9,10.3C32.4,9.4 36.9,11 40.7,11.9C44.6,12.7 49.3,13.2 51.9,15.4C54.5,17.7 55.3,22.2 56.6,25.4C57.8,28.7 59,31.6 59.5,35Z" fill="#F28A9A" opacity="0.9"/><path d="M41.2,30C41.4,31.5 40.6,33.7 39.3,34.7C38,35.6 35.2,35.6 33.4,35.8C31.6,36 30.3,36 28.6,35.8C26.8,35.6 24.2,35.5 23,34.5C21.8,33.6 21.3,31.5 21.4,30C21.4,28.5 22.2,26.7 23.3,25.7C24.5,24.6 26.6,24.1 28.4,23.7C30.1,23.3 32.2,22.8 33.9,23.1C35.6,23.5 37.3,24.6 38.5,25.8C39.7,26.9 41.1,28.5 41.2,30Z" fill="#FBC6CE" opacity="0.9"/></g></svg>