<svg xmlns="http://www.w3.org/2000/svg" viewBox="2216 20 156 180" width="156" height="180"><defs><filter id="bgv-gr" x="-20%" y="-20%" width="140%" height="150%" color-interpolation-filters="sRGB"><feTurbulence type="fractalNoise" baseFrequency="0.750" numOctaves="2" seed="61" result="n"/><feColorMatrix in="n" type="matrix" values="0 0 0 0 0.24 0 0 0 0 0.14 0 0 0 0 0.08 0.70 0 0 0 -0.39" result="d"/><feColorMatrix in="n" type="matrix" values="0 0 0 0 1 0 0 0 0 0.98 0 0 0 0 0.92 -0.75 0 0 0 0.28" result="l"/><feTurbulence type="fractalNoise" baseFrequency="0.120 0.550" numOctaves="3" seed="72" result="f"/><feColorMatrix in="f" type="matrix" values="0 0 0 0 1 0 0 0 0 0.98 0 0 0 0 0.93 0.84 0 0 0 -0.52" result="fl"/><feColorMatrix in="f" type="matrix" values="0 0 0 0 0.3 0 0 0 0 0.18 0 0 0 0 0.1 -0.72 0 0 0 0.19" result="fd"/><feTurbulence type="fractalNoise" baseFrequency="0.0060" numOctaves="2" seed="68" result="m"/><feColorMatrix in="m" type="matrix" values="0 0 0 0 0.3 0 0 0 0 0.17 0 0 0 0 0.08 0.20 0 0 0 -0.08" result="md"/><feColorMatrix in="m" type="matrix" values="0 0 0 0 1 0 0 0 0 0.97 0 0 0 0 0.9 -0.20 0 0 0 0.11" result="ml"/><feTurbulence type="fractalNoise" baseFrequency="0.440 0.156" numOctaves="3" seed="80" result="f2"/><feColorMatrix in="f2" type="matrix" values="0 0 0 0 1 0 0 0 0 0.98 0 0 0 0 0.93 0.60 0 0 0 -0.38" result="fl2"/><feMerge result="g"><feMergeNode in="md"/><feMergeNode in="ml"/><feMergeNode in="fd"/><feMergeNode in="fl"/><feMergeNode in="fl2"/><feMergeNode in="d"/><feMergeNode in="l"/></feMerge><feComposite in="g" in2="SourceGraphic" operator="in" result="gc"/><feMerge><feMergeNode in="SourceGraphic"/><feMergeNode in="gc"/></feMerge></filter><filter id="bgv-sh" x="-25%" y="-25%" width="150%" height="160%" color-interpolation-filters="sRGB"><feGaussianBlur in="SourceAlpha" stdDeviation="2.5"/><feOffset dx="0" dy="3" result="b"/><feFlood flood-color="#3A2216" flood-opacity="0.22"/><feComposite in2="b" operator="in" result="s"/><feMerge><feMergeNode in="s"/><feMergeNode in="SourceGraphic"/></feMerge></filter><filter id="bgv-sh2" x="-25%" y="-25%" width="150%" height="160%" color-interpolation-filters="sRGB"><feGaussianBlur in="SourceAlpha" stdDeviation="5"/><feOffset dx="0" dy="6" result="b"/><feFlood flood-color="#3A2216" flood-opacity="0.24"/><feComposite in2="b" operator="in" result="s"/><feMerge><feMergeNode in="s"/><feMergeNode in="SourceGraphic"/></feMerge></filter><filter id="bgv-bl" x="-50%" y="-50%" width="200%" height="200%"><feGaussianBlur stdDeviation="6"/></filter><filter id="bgv-cut" x="-20%" y="-20%" width="140%" height="150%" color-interpolation-filters="sRGB"><feMorphology in="SourceAlpha" operator="dilate" radius="2.2" result="dil"/><feTurbulence type="fractalNoise" baseFrequency="0.22" numOctaves="2" seed="63" result="tn"/><feDisplacementMap in="dil" in2="tn" scale="4.0" xChannelSelector="R" yChannelSelector="G" result="rg"/><feFlood flood-color="#FFF8EA" flood-opacity="0.95"/><feComposite in2="rg" operator="in" result="rim"/><feGaussianBlur in="rg" stdDeviation="2.5"/><feOffset dx="0" dy="3" result="b"/><feFlood flood-color="#3A2216" flood-opacity="0.22"/><feComposite in2="b" operator="in" result="s"/><feMerge><feMergeNode in="s"/><feMergeNode in="rim"/><feMergeNode in="SourceGraphic"/></feMerge></filter></defs><g filter="url(#bgv-gr)"><g transform="rotate(-3 2295 110)"><g filter="url(#bgv-sh)"><path d="M2240,39.9C2244.8,39.9 2258.3,39.8 2267.6,39.7C2276.9,39.6 2286.7,39 2295.8,39.2C2304.9,39.3 2313.3,40.3 2322.4,40.6C2331.5,40.9 2345.4,41 2350.3,41C2355.1,40.9 2351,40.2 2351.5,40.2C2351.9,40.2 2352.7,40.5 2353,41.1C2353.2,41.8 2352.9,39.1 2353,44C2353.1,49 2353.2,61.9 2353.5,71C2353.9,80.1 2354.9,90 2355.1,98.8C2355.3,107.6 2354.9,115.1 2354.7,124C2354.4,132.9 2353.9,143 2353.7,152.2C2353.5,161.3 2353.5,174.2 2353.4,178.8C2353.2,183.4 2353.1,179.2 2352.9,179.9C2352.6,180.5 2352.5,182.1 2352.1,182.6C2351.8,183.1 2355.6,183 2350.6,182.8C2345.6,182.7 2331.2,181.7 2322.1,181.6C2313,181.5 2304.9,182.3 2295.9,182.2C2286.9,182.1 2277.5,181.1 2268,181C2258.5,181 2244,181.8 2238.9,181.8C2233.9,181.8 2237.8,181 2237.5,180.9C2237.3,180.8 2237.7,181.7 2237.3,181C2236.9,180.4 2235.7,182.1 2235.3,177C2235,171.9 2235.1,159.3 2235.3,150.4C2235.5,141.6 2236.2,133.1 2236.5,124.1C2236.9,115.1 2237.2,105.5 2237.1,96.4C2237.1,87.4 2236.1,78.7 2236.1,69.9C2236,61.1 2236.9,48.3 2236.8,43.7C2236.8,39.1 2235.6,42.9 2235.9,42.2C2236.3,41.5 2238.2,39.8 2238.9,39.4C2239.6,39 2235.2,39.8 2240,39.9Z" fill="#FFFDF7"/><path d="M2244,160 Q2270,154 2296,162 Q2320,168 2346,158" fill="none" stroke="#62AE48" stroke-width="4" stroke-linecap="round" stroke-linejoin="round" opacity="0.9"/><circle cx="2328" cy="66" r="11" fill="#F7C94A"/><path d="M2343,66 L2349,66" fill="none" stroke="#F2B53A" stroke-width="2.6" stroke-linecap="round" stroke-linejoin="round" opacity="0.9"/><path d="M2338.6,76.6 L2342.8,80.8" fill="none" stroke="#F2B53A" stroke-width="2.6" stroke-linecap="round" stroke-linejoin="round" opacity="0.9"/><path d="M2328,81 L2328,87" fill="none" stroke="#F2B53A" stroke-width="2.6" stroke-linecap="round" stroke-linejoin="round" opacity="0.9"/><path d="M2317.4,76.6 L2313.2,80.8" fill="none" stroke="#F2B53A" stroke-width="2.6" stroke-linecap="round" stroke-linejoin="round" opacity="0.9"/><path d="M2313,66 L2307,66" fill="none" stroke="#F2B53A" stroke-width="2.6" stroke-linecap="round" stroke-linejoin="round" opacity="0.9"/><path d="M2317.4,55.4 L2313.2,51.2" fill="none" stroke="#F2B53A" stroke-width="2.6" stroke-linecap="round" stroke-linejoin="round" opacity="0.9"/><path d="M2328,51 L2328,45" fill="none" stroke="#F2B53A" stroke-width="2.6" stroke-linecap="round" stroke-linejoin="round" opacity="0.9"/><path d="M2338.6,55.4 L2342.8,51.2" fill="none" stroke="#F2B53A" stroke-width="2.6" stroke-linecap="round" stroke-linejoin="round" opacity="0.9"/><circle cx="2266" cy="88" r="9" fill="#F3C9A5"/><circle cx="2266" cy="76" r="5" fill="#8A5A3A"/><path d="M2266,97 L2254,132 L2278,132Z" fill="#F08FA0"/><path d="M2261,132 L2259,152" fill="none" stroke="#8A5A3A" stroke-width="2.6" stroke-linecap="round" stroke-linejoin="round" opacity="0.9"/><path d="M2271,132 L2273,152" fill="none" stroke="#8A5A3A" stroke-width="2.6" stroke-linecap="round" stroke-linejoin="round" opacity="0.9"/><circle cx="2296" cy="106" r="7" fill="#F3C9A5"/><path d="M2296,113 L2286,138 L2306,138Z" fill="#F7C94A"/><path d="M2292,138 L2291,152" fill="none" stroke="#8A5A3A" stroke-width="2.4" stroke-linecap="round" stroke-linejoin="round" opacity="0.9"/><path d="M2300,138 L2301,152" fill="none" stroke="#8A5A3A" stroke-width="2.4" stroke-linecap="round" stroke-linejoin="round" opacity="0.9"/><path d="M2272,108 Q2282,118 2290,118" fill="none" stroke="#F3C9A5" stroke-width="2.6" stroke-linecap="round" stroke-linejoin="round" opacity="0.9"/><path d="M2330,146 L2319,146 L2314,142.3 L2320.1,141.2 L2317.1,135.7 L2323.1,137.4 L2322.5,130.5 L2327.6,135.3 L2330,129.5 L2332.4,135.3 L2337.6,130.1 L2336.9,137.4 L2343.7,135.1 L2339.9,141.2 L2346.9,142.1 L2341,146Z" fill="#9E6A48"/><ellipse cx="2330" cy="148" rx="12" ry="8" fill="#E9C49A"/><circle cx="2320" cy="147" r="1.8" fill="#2E201B"/><path d="M2227.6,30C2233.1,30 2254.4,30.4 2260,30.5C2265.6,30.6 2261,30.5 2261.3,30.6C2261.6,30.6 2261.7,30.4 2261.9,30.7C2262.1,30.9 2262.4,30.1 2262.4,31.9C2262.4,33.8 2262.2,39.7 2262.1,41.6C2261.9,43.5 2261.8,43.1 2261.5,43.3C2261.3,43.6 2260.9,43.2 2260.6,43.3C2260.3,43.4 2265.3,43.7 2259.8,43.8C2254.4,44 2233.5,44.1 2228,44C2222.5,43.9 2227,43.4 2226.7,43.2C2226.4,43 2226.2,43 2226.1,42.8C2226,42.6 2226,43.9 2226,42.1C2226.1,40.2 2226.2,33.8 2226.2,31.9C2226.2,30.1 2226,31.4 2226.2,31.1C2226.4,30.9 2227.2,30.6 2227.4,30.4C2227.7,30.2 2222.2,30 2227.6,30Z" fill="#F4EBD2" opacity="0.85" transform="rotate(-18 2244 37)"/><path d="M2330,30.4C2335.5,30.3 2356.2,29.9 2361.6,29.9C2367,29.9 2362.2,30.3 2362.5,30.4C2362.9,30.6 2363.1,30.6 2363.4,30.8C2363.7,31 2364.3,29.7 2364.3,31.6C2364.4,33.4 2363.7,39.9 2363.7,41.8C2363.6,43.7 2364.1,42.6 2364,43C2364,43.4 2363.5,44 2363.1,44.1C2362.7,44.3 2367.3,43.9 2361.7,43.9C2356.2,44 2335.2,44.3 2329.7,44.3C2324.1,44.3 2328.8,44.2 2328.5,44C2328.3,43.8 2328.3,43.3 2328.1,43.1C2328,42.8 2327.7,44.3 2327.7,42.4C2327.6,40.6 2327.6,33.8 2327.8,32C2328,30.1 2328.5,31.4 2328.7,31.1C2328.9,30.8 2328.6,30.1 2328.8,30C2329,29.9 2324.5,30.4 2330,30.4Z" fill="#F4EBD2" opacity="0.85" transform="rotate(16 2346 37)"/></g></g></g></svg>