<svg xmlns="http://www.w3.org/2000/svg" viewBox="0 0 360 520" width="360" height="520"><defs><filter id="wjg-gr" x="-20%" y="-20%" width="140%" height="150%" color-interpolation-filters="sRGB"><feTurbulence type="fractalNoise" baseFrequency="1.000" numOctaves="2" seed="681" result="n"/><feColorMatrix in="n" type="matrix" values="0 0 0 0 0.24 0 0 0 0 0.14 0 0 0 0 0.08 0.45 0 0 0 -0.25" result="d"/><feColorMatrix in="n" type="matrix" values="0 0 0 0 1 0 0 0 0 0.98 0 0 0 0 0.92 -0.48 0 0 0 0.18" result="l"/><feTurbulence type="fractalNoise" baseFrequency="0.180 0.800" numOctaves="3" seed="692" result="f"/><feColorMatrix in="f" type="matrix" values="0 0 0 0 1 0 0 0 0 0.98 0 0 0 0 0.93 0.56 0 0 0 -0.35" result="fl"/><feColorMatrix in="f" type="matrix" values="0 0 0 0 0.3 0 0 0 0 0.18 0 0 0 0 0.1 -0.48 0 0 0 0.13" result="fd"/><feTurbulence type="fractalNoise" baseFrequency="0.0120" numOctaves="2" seed="688" result="m"/><feColorMatrix in="m" type="matrix" values="0 0 0 0 0.3 0 0 0 0 0.17 0 0 0 0 0.08 0.05 0 0 0 -0.02" result="md"/><feColorMatrix in="m" type="matrix" values="0 0 0 0 1 0 0 0 0 0.97 0 0 0 0 0.9 -0.05 0 0 0 0.03" result="ml"/><feTurbulence type="fractalNoise" baseFrequency="0.640 0.234" numOctaves="3" seed="700" result="f2"/><feColorMatrix in="f2" type="matrix" values="0 0 0 0 1 0 0 0 0 0.98 0 0 0 0 0.93 0.40 0 0 0 -0.26" result="fl2"/><feMerge result="g"><feMergeNode in="md"/><feMergeNode in="ml"/><feMergeNode in="fd"/><feMergeNode in="fl"/><feMergeNode in="fl2"/><feMergeNode in="d"/><feMergeNode in="l"/></feMerge><feComposite in="g" in2="SourceGraphic" operator="in" result="gc"/><feMerge><feMergeNode in="SourceGraphic"/><feMergeNode in="gc"/></feMerge></filter><filter id="wjg-sh" x="-25%" y="-25%" width="150%" height="160%" color-interpolation-filters="sRGB"><feGaussianBlur in="SourceAlpha" stdDeviation="3.5"/><feOffset dx="0" dy="4" result="b"/><feFlood flood-color="#3A2216" flood-opacity="0.33"/><feComposite in2="b" operator="in" result="s"/><feMerge><feMergeNode in="s"/><feMergeNode in="SourceGraphic"/></feMerge></filter><filter id="wjg-sh2" x="-25%" y="-25%" width="150%" height="160%" color-interpolation-filters="sRGB"><feGaussianBlur in="SourceAlpha" stdDeviation="7"/><feOffset dx="0" dy="8" result="b"/><feFlood flood-color="#3A2216" flood-opacity="0.28"/><feComposite in2="b" operator="in" result="s"/><feMerge><feMergeNode in="s"/><feMergeNode in="SourceGraphic"/></feMerge></filter><filter id="wjg-bl" x="-50%" y="-50%" width="200%" height="200%"><feGaussianBlur stdDeviation="8"/></filter><filter id="wjg-cut" x="-20%" y="-20%" width="140%" height="150%" color-interpolation-filters="sRGB"><feMorphology in="SourceAlpha" operator="dilate" radius="2.2" result="dil"/><feTurbulence type="fractalNoise" baseFrequency="0.22" numOctaves="2" seed="683" result="tn"/><feDisplacementMap in="dil" in2="tn" scale="4.0" xChannelSelector="R" yChannelSelector="G" result="rg"/><feFlood flood-color="#FFF8EA" flood-opacity="0.95"/><feComposite in2="rg" operator="in" result="rim"/><feGaussianBlur in="rg" stdDeviation="3.5"/><feOffset dx="0" dy="4" result="b"/><feFlood flood-color="#3A2216" flood-opacity="0.33"/><feComposite in2="b" operator="in" result="s"/><feMerge><feMergeNode in="s"/><feMergeNode in="rim"/><feMergeNode in="SourceGraphic"/></feMerge></filter></defs><g filter="url(#wjg-gr)"><g filter="url(#wjg-bl)"><ellipse cx="198" cy="486" rx="104" ry="17" fill="#3A2216" opacity="0.34"/></g><g filter="url(#wjg-cut)"><path d="M300,196 C348,196 352,250 348,272 C344,300 322,324 296,330" fill="none" stroke="#C3DCD8" stroke-width="30" stroke-linecap="round" stroke-linejoin="round"/><path d="M300,196 C348,196 352,250 348,272 C344,300 322,324 296,330" fill="none" stroke="#ECF5F1" stroke-width="19" stroke-linecap="round" stroke-linejoin="round"/></g><g filter="url(#wjg-cut)"><path d="M94,148 C90,300 100,414 124,446 C152,478 244,478 272,446 C296,414 306,300 302,148 L302,148Z" fill="#E4F1EE"/><path d="M100,140 Q74,126 52,118 Q62,144 78,164 Q96,170 106,166Z" fill="#E4F1EE"/><ellipse cx="198" cy="148" rx="104" ry="31" fill="#E4F1EE"/></g><ellipse cx="198" cy="148" rx="104" ry="31" fill="#D2E4E0"/><ellipse cx="198" cy="151" rx="91" ry="24" fill="#AABBB5"/><clipPath id="wjg-b"><path d="M94,148 C90,300 100,414 124,446 C152,478 244,478 272,446 C296,414 306,300 302,148 L302,148Z"/></clipPath><g clip-path="url(#wjg-b)"><g filter="url(#wjg-sh)"><path d="M92,214 Q198,252 306,214 L302,410 C298,438 272,458 198,458 C124,458 100,438 96,410Z" fill="#5AAFCB"/><path d="M96,222 Q198,258 302,222 L298,406 C294,432 268,450 198,450 C128,450 104,432 100,406Z" fill="#8ACFE3"/><path d="M92,214 Q198,252 306,214 L305,232 Q198,270 93,232Z" fill="#D6F1F8" opacity="0.9"/><path d="M120,268 Q132,360 154,430 Q126,356 112,270Z" fill="#FFFDF7" opacity="0.5"/></g></g><path d="M258,190 Q276,300 262,420 Q286,300 274,188Z" fill="#FFFDF7" opacity="0.45"/><path d="M112,186 Q104,290 116,392 Q96,292 104,184Z" fill="#FFFDF7" opacity="0.35"/><path d="M52,118 Q74,126 104,146 Q78,140 84,160 Q56,130 52,118Z" fill="#F3F8F3"/><path d="M58,122 Q82,132 98,150 Q82,138 60,130Z" fill="#8ACFE3" opacity="0.85"/><g filter="url(#wjg-sh)"><path d="M62,140 Q74,146 71,162 Q68,180 60,181 Q52,178 54,162 Q50,146 62,140Z" fill="#8ACFE3"/><circle cx="60" cy="171" r="3" fill="#FFFDF7" opacity="0.85"/></g><ellipse cx="198" cy="452" rx="84" ry="17" fill="#C3DCD8" opacity="0.7"/><ellipse cx="198" cy="450" rx="76" ry="13" fill="#EDF5F1"/></g></svg>