<svg xmlns="http://www.w3.org/2000/svg" viewBox="0 0 900 400" width="900" height="400"><defs><filter id="lg-gr" x="-20%" y="-20%" width="140%" height="150%" color-interpolation-filters="sRGB"><feTurbulence type="fractalNoise" baseFrequency="0.900" numOctaves="2" seed="201" result="n"/><feColorMatrix in="n" type="matrix" values="0 0 0 0 0.24 0 0 0 0 0.14 0 0 0 0 0.08 0.70 0 0 0 -0.39" result="d"/><feColorMatrix in="n" type="matrix" values="0 0 0 0 1 0 0 0 0 0.98 0 0 0 0 0.92 -0.75 0 0 0 0.28" result="l"/><feTurbulence type="fractalNoise" baseFrequency="0.160 0.700" numOctaves="3" seed="212" result="f"/><feColorMatrix in="f" type="matrix" values="0 0 0 0 1 0 0 0 0 0.98 0 0 0 0 0.93 0.91 0 0 0 -0.57" result="fl"/><feColorMatrix in="f" type="matrix" values="0 0 0 0 0.3 0 0 0 0 0.18 0 0 0 0 0.1 -0.78 0 0 0 0.21" result="fd"/><feTurbulence type="fractalNoise" baseFrequency="0.0180" numOctaves="2" seed="208" result="m"/><feColorMatrix in="m" type="matrix" values="0 0 0 0 0.3 0 0 0 0 0.17 0 0 0 0 0.08 0.09 0 0 0 -0.04" result="md"/><feColorMatrix in="m" type="matrix" values="0 0 0 0 1 0 0 0 0 0.97 0 0 0 0 0.9 -0.09 0 0 0 0.05" result="ml"/><feTurbulence type="fractalNoise" baseFrequency="0.560 0.208" numOctaves="3" seed="220" result="f2"/><feColorMatrix in="f2" type="matrix" values="0 0 0 0 1 0 0 0 0 0.98 0 0 0 0 0.93 0.65 0 0 0 -0.42" result="fl2"/><feMerge result="g"><feMergeNode in="md"/><feMergeNode in="ml"/><feMergeNode in="fd"/><feMergeNode in="fl"/><feMergeNode in="fl2"/><feMergeNode in="d"/><feMergeNode in="l"/></feMerge><feComposite in="g" in2="SourceGraphic" operator="in" result="gc"/><feMerge><feMergeNode in="SourceGraphic"/><feMergeNode in="gc"/></feMerge></filter><filter id="lg-sh" x="-25%" y="-25%" width="150%" height="160%" color-interpolation-filters="sRGB"><feGaussianBlur in="SourceAlpha" stdDeviation="3.5"/><feOffset dx="0" dy="4" result="b"/><feFlood flood-color="#3A2216" flood-opacity="0.33"/><feComposite in2="b" operator="in" result="s"/><feMerge><feMergeNode in="s"/><feMergeNode in="SourceGraphic"/></feMerge></filter><filter id="lg-sh2" x="-25%" y="-25%" width="150%" height="160%" color-interpolation-filters="sRGB"><feGaussianBlur in="SourceAlpha" stdDeviation="7"/><feOffset dx="0" dy="8" result="b"/><feFlood flood-color="#3A2216" flood-opacity="0.28"/><feComposite in2="b" operator="in" result="s"/><feMerge><feMergeNode in="s"/><feMergeNode in="SourceGraphic"/></feMerge></filter><filter id="lg-bl" x="-50%" y="-50%" width="200%" height="200%"><feGaussianBlur stdDeviation="6"/></filter><filter id="lg-cut" x="-20%" y="-20%" width="140%" height="150%" color-interpolation-filters="sRGB"><feMorphology in="SourceAlpha" operator="dilate" radius="2.2" result="dil"/><feTurbulence type="fractalNoise" baseFrequency="0.22" numOctaves="2" seed="203" result="tn"/><feDisplacementMap in="dil" in2="tn" scale="4.0" xChannelSelector="R" yChannelSelector="G" result="rg"/><feFlood flood-color="#FFF8EA" flood-opacity="0.95"/><feComposite in2="rg" operator="in" result="rim"/><feGaussianBlur in="rg" stdDeviation="3.5"/><feOffset dx="0" dy="4" result="b"/><feFlood flood-color="#3A2216" flood-opacity="0.33"/><feComposite in2="b" operator="in" result="s"/><feMerge><feMergeNode in="s"/><feMergeNode in="rim"/><feMergeNode in="SourceGraphic"/></feMerge></filter></defs><g filter="url(#lg-gr)"><g filter="url(#lg-cut)"><path d="M875.2,206C873.8,218.1 879.3,230.3 873.7,241.9C868.1,253.4 853.6,264.4 841.6,275.4C829.6,286.4 818.4,297.8 801.7,307.7C785,317.6 764.8,327.6 741.2,334.8C717.7,342 687.3,346.1 660.4,351.1C633.4,356.1 607,359.9 579.6,364.8C552.2,369.7 525.1,378.9 496.1,380.5C467.1,382.2 435.1,376.8 405.5,374.6C375.9,372.3 348.3,369.5 318.6,367C289,364.4 253.8,364.9 227.6,359.4C201.4,353.8 183.8,342 161.5,333.6C139.1,325.2 111,318.8 93.4,309.1C75.9,299.5 67.5,287 55.9,275.9C44.3,264.7 28.7,253.7 23.9,242.1C19.1,230.4 27,218 27.1,206C27.1,194 20.8,181.9 24,169.9C27.3,158 34,145.4 46.6,134.5C59.3,123.6 81.7,114.5 100,104.8C118.4,95.1 134.8,84.5 156.8,76.3C178.7,68.1 204.6,60.5 231.8,55.5C259,50.6 291.3,50.6 320,46.7C348.7,42.8 374.9,34.4 404.1,32.3C433.4,30.2 465.8,32 495.4,34C525,36 554.5,39.8 581.9,44.4C609.3,48.9 632.7,56.1 659.9,61.2C687.2,66.4 722.2,68.1 745.4,75.4C768.6,82.7 781.5,95.1 798.9,105.1C816.3,115 836,124.4 849.8,135.1C863.7,145.8 877.9,157.6 882.2,169.4C886.4,181.2 876.6,193.9 875.2,206Z" fill="#FBF0DA"/></g><path d="M841.5,200C838.5,211 833.1,221.6 827.4,232.3C821.6,243.1 819.3,254.8 807,264.5C794.6,274.3 772.8,282.8 753.1,290.9C733.5,299.1 711.4,306 689.2,313.2C666.9,320.4 645,327.8 619.9,334.1C594.9,340.4 567.9,347.9 538.9,351.1C509.9,354.4 476.8,353.9 446,353.6C415.2,353.3 382.8,352.9 354.2,349.3C325.6,345.8 301.4,337.4 274.6,332.1C247.8,326.9 216.5,324.3 193.4,317.6C170.2,310.9 152.8,300.9 135.8,291.9C118.8,282.8 103.4,273.3 91.5,263.4C79.7,253.5 71.3,242.9 64.5,232.3C57.8,221.8 55.5,211.1 51.2,200C46.9,188.9 35.1,176.6 38.7,165.5C42.2,154.3 58.5,143.4 72.4,133.2C86.4,123 103.1,113.1 122.4,104.2C141.7,95.3 162.6,85.9 188.1,79.9C213.5,73.9 246.8,72.2 275,68.2C303.2,64.2 329,59.3 357.5,56C386,52.7 416,49.3 446,48.5C476,47.7 507.5,49 537.6,51C567.6,53.1 598.3,56.3 626.3,61C654.3,65.7 684.7,71.1 705.5,79.2C726.4,87.3 733.5,100.4 751.4,109.6C769.3,118.8 797.4,124.9 813.1,134.4C828.7,143.8 840.5,155.2 845.3,166.2C850,177.1 844.5,189 841.5,200Z" fill="#FFFDF7" opacity="0.45"/><g filter="url(#lg-sh)"><g transform="translate(123 176) scale(1.5) rotate(-4 38 -40)"><path d="M68,-80 C52,-98 8,-100 4,-48 C0,4 52,6 70,-14" fill="none" stroke="#9C3D28" stroke-width="28" stroke-linecap="round" stroke-linejoin="round" transform="translate(2 3.5)"/><path d="M68,-80 C52,-98 8,-100 4,-48 C0,4 52,6 70,-14" fill="none" stroke="#EC5A3C" stroke-width="19" stroke-linecap="round" stroke-linejoin="round"/><path d="M68,-80 C52,-98 8,-100 4,-48 C0,4 52,6 70,-14" fill="none" stroke="#F5A390" stroke-width="4.2" stroke-linecap="round" stroke-linejoin="round" transform="translate(-2.5 -3)" opacity="0.7"/></g><g transform="translate(262.5 176) scale(1.5) rotate(3 30 -40)"><path d="M30,-60 C66,-60 66,0 30,0 C-6,0 -6,-60 30,-60Z" fill="none" stroke="#A04D28" stroke-width="28" stroke-linecap="round" stroke-linejoin="round" transform="translate(2 3.5)"/><path d="M30,-60 C66,-60 66,0 30,0 C-6,0 -6,-60 30,-60Z" fill="none" stroke="#F4773C" stroke-width="19" stroke-linecap="round" stroke-linejoin="round"/><path d="M30,-60 C66,-60 66,0 30,0 C-6,0 -6,-60 30,-60Z" fill="none" stroke="#F9B390" stroke-width="4.2" stroke-linecap="round" stroke-linejoin="round" transform="translate(-2.5 -3)" opacity="0.7"/></g><g transform="translate(378 176) scale(1.5) rotate(-2 30 -40)"><path d="M30,-60 C66,-60 66,0 30,0 C-6,0 -6,-60 30,-60Z" fill="none" stroke="#9A6518" stroke-width="28" stroke-linecap="round" stroke-linejoin="round" transform="translate(2 3.5)"/><path d="M30,-60 C66,-60 66,0 30,0 C-6,0 -6,-60 30,-60Z" fill="none" stroke="#E9A21E" stroke-width="19" stroke-linecap="round" stroke-linejoin="round"/><path d="M30,-60 C66,-60 66,0 30,0 C-6,0 -6,-60 30,-60Z" fill="none" stroke="#F3CB80" stroke-width="4.2" stroke-linecap="round" stroke-linejoin="round" transform="translate(-2.5 -3)" opacity="0.7"/></g><g transform="translate(493.5 176) scale(1.5) rotate(4 23 -40)"><path d="M0,-98 L0,0 M42,-60 L4,-24 M14,-34 L44,0" fill="none" stroke="#506B2F" stroke-width="28" stroke-linecap="round" stroke-linejoin="round" transform="translate(2 3.5)"/><path d="M0,-98 L0,0 M42,-60 L4,-24 M14,-34 L44,0" fill="none" stroke="#62AE48" stroke-width="19" stroke-linecap="round" stroke-linejoin="round"/><path d="M0,-98 L0,0 M42,-60 L4,-24 M14,-34 L44,0" fill="none" stroke="#A9D297" stroke-width="4.2" stroke-linecap="round" stroke-linejoin="round" transform="translate(-2.5 -3)" opacity="0.7"/></g><g transform="translate(588 176) scale(1.5) rotate(-3 0 -40)"><path d="M0,-58 L0,0" fill="none" stroke="#3D6361" stroke-width="28" stroke-linecap="round" stroke-linejoin="round" transform="translate(2 3.5)"/><path d="M0,-58 L0,0" fill="none" stroke="#3F9EA3" stroke-width="19" stroke-linecap="round" stroke-linejoin="round"/><path d="M0,-58 L0,0" fill="none" stroke="#95C9C9" stroke-width="4.2" stroke-linecap="round" stroke-linejoin="round" transform="translate(-2.5 -3)" opacity="0.7"/><path d="M0,14 C-16,4 -18,-8 -10,-13 C-5,-16 0,-12 0,-8 C0,-12 5,-16 10,-13 C18,-8 16,4 0,14Z" fill="#EC5A3C" transform="translate(0 -88) scale(1.25)"/></g><g transform="translate(613.5 176) scale(1.5) rotate(2 22 -40)"><path d="M0,0 L0,-58 M0,-34 C0,-64 44,-68 44,-34 L44,0" fill="none" stroke="#9C3D28" stroke-width="28" stroke-linecap="round" stroke-linejoin="round" transform="translate(2 3.5)"/><path d="M0,0 L0,-58 M0,-34 C0,-64 44,-68 44,-34 L44,0" fill="none" stroke="#EC5A3C" stroke-width="19" stroke-linecap="round" stroke-linejoin="round"/><path d="M0,0 L0,-58 M0,-34 C0,-64 44,-68 44,-34 L44,0" fill="none" stroke="#F5A390" stroke-width="4.2" stroke-linecap="round" stroke-linejoin="round" transform="translate(-2.5 -3)" opacity="0.7"/></g><g transform="translate(705 176) scale(1.5) rotate(-2 28 -40)"><path d="M52,-38 C46,-66 2,-66 2,-32 C2,2 46,2 52,-26 M52,-60 L52,10 C52,40 14,42 4,26" fill="none" stroke="#A04D28" stroke-width="28" stroke-linecap="round" stroke-linejoin="round" transform="translate(2 3.5)"/><path d="M52,-38 C46,-66 2,-66 2,-32 C2,2 46,2 52,-26 M52,-60 L52,10 C52,40 14,42 4,26" fill="none" stroke="#F4773C" stroke-width="19" stroke-linecap="round" stroke-linejoin="round"/><path d="M52,-38 C46,-66 2,-66 2,-32 C2,2 46,2 52,-26 M52,-60 L52,10 C52,40 14,42 4,26" fill="none" stroke="#F9B390" stroke-width="4.2" stroke-linecap="round" stroke-linejoin="round" transform="translate(-2.5 -3)" opacity="0.7"/></g></g><g filter="url(#lg-sh)"><g transform="translate(181.1 330) scale(0.92) rotate(-3 30 -40)"><path d="M0,-58 L14,0 L30,-40 L46,0 L60,-58" fill="none" stroke="#714327" stroke-width="28" stroke-linecap="round" stroke-linejoin="round" transform="translate(2 3.5)"/><path d="M0,-58 L14,0 L30,-40 L46,0 L60,-58" fill="none" stroke="#9E643A" stroke-width="19" stroke-linecap="round" stroke-linejoin="round"/><path d="M0,-58 L14,0 L30,-40 L46,0 L60,-58" fill="none" stroke="#CAA98F" stroke-width="4.2" stroke-linecap="round" stroke-linejoin="round" transform="translate(-2.5 -3)" opacity="0.7"/></g><g transform="translate(252 330) scale(0.92) rotate(2 0 -40)"><path d="M0,-58 L0,0" fill="none" stroke="#714327" stroke-width="28" stroke-linecap="round" stroke-linejoin="round" transform="translate(2 3.5)"/><path d="M0,-58 L0,0" fill="none" stroke="#9E643A" stroke-width="19" stroke-linecap="round" stroke-linejoin="round"/><path d="M0,-58 L0,0" fill="none" stroke="#CAA98F" stroke-width="4.2" stroke-linecap="round" stroke-linejoin="round" transform="translate(-2.5 -3)" opacity="0.7"/><path d="M0,14 C-16,4 -18,-8 -10,-13 C-5,-16 0,-12 0,-8 C0,-12 5,-16 10,-13 C18,-8 16,4 0,14Z" fill="#EC5A3C" transform="translate(0 -88) scale(1.25)"/></g><g transform="translate(267.6 330) scale(0.92) rotate(-2 19 -40)"><path d="M14,-86 L14,-14 C14,2 30,2 38,-4 M0,-58 L34,-58" fill="none" stroke="#714327" stroke-width="28" stroke-linecap="round" stroke-linejoin="round" transform="translate(2 3.5)"/><path d="M14,-86 L14,-14 C14,2 30,2 38,-4 M0,-58 L34,-58" fill="none" stroke="#9E643A" stroke-width="19" stroke-linecap="round" stroke-linejoin="round"/><path d="M14,-86 L14,-14 C14,2 30,2 38,-4 M0,-58 L34,-58" fill="none" stroke="#CAA98F" stroke-width="4.2" stroke-linecap="round" stroke-linejoin="round" transform="translate(-2.5 -3)" opacity="0.7"/></g><g transform="translate(318.2 330) scale(0.92) rotate(3 22 -40)"><path d="M0,-98 L0,0 M0,-34 C0,-64 44,-68 44,-34 L44,0" fill="none" stroke="#714327" stroke-width="28" stroke-linecap="round" stroke-linejoin="round" transform="translate(2 3.5)"/><path d="M0,-98 L0,0 M0,-34 C0,-64 44,-68 44,-34 L44,0" fill="none" stroke="#9E643A" stroke-width="19" stroke-linecap="round" stroke-linejoin="round"/><path d="M0,-98 L0,0 M0,-34 C0,-64 44,-68 44,-34 L44,0" fill="none" stroke="#CAA98F" stroke-width="4.2" stroke-linecap="round" stroke-linejoin="round" transform="translate(-2.5 -3)" opacity="0.7"/></g></g><g filter="url(#lg-sh)"><g transform="translate(404.7 336) scale(1.32) rotate(-3 36 -40)"><path d="M0,0 L2,-94 L36,-40 L70,-94 L72,0" fill="none" stroke="#9A4535" stroke-width="30" stroke-linecap="round" stroke-linejoin="round" transform="translate(2 3.5)"/><path d="M0,0 L2,-94 L36,-40 L70,-94 L72,0" fill="none" stroke="#E86853" stroke-width="21" stroke-linecap="round" stroke-linejoin="round"/><path d="M0,0 L2,-94 L36,-40 L70,-94 L72,0" fill="none" stroke="#F2AB9D" stroke-width="4.6" stroke-linecap="round" stroke-linejoin="round" transform="translate(-2.5 -3)" opacity="0.7"/></g><g transform="translate(522.2 336) scale(1.32) rotate(2 30 -40)"><path d="M30,-60 C66,-60 66,0 30,0 C-6,0 -6,-60 30,-60Z" fill="none" stroke="#9A4535" stroke-width="30" stroke-linecap="round" stroke-linejoin="round" transform="translate(2 3.5)"/><path d="M30,-60 C66,-60 66,0 30,0 C-6,0 -6,-60 30,-60Z" fill="none" stroke="#E86853" stroke-width="21" stroke-linecap="round" stroke-linejoin="round"/><path d="M30,-60 C66,-60 66,0 30,0 C-6,0 -6,-60 30,-60Z" fill="none" stroke="#F2AB9D" stroke-width="4.6" stroke-linecap="round" stroke-linejoin="round" transform="translate(-2.5 -3)" opacity="0.7"/></g><g transform="translate(623.8 336) scale(1.32) rotate(-2 36 -40)"><path d="M0,0 L0,-58 M0,-36 C0,-64 36,-66 36,-36 L36,0 M36,-36 C36,-66 72,-64 72,-36 L72,0" fill="none" stroke="#9A4535" stroke-width="30" stroke-linecap="round" stroke-linejoin="round" transform="translate(2 3.5)"/><path d="M0,0 L0,-58 M0,-36 C0,-64 36,-66 36,-36 L36,0 M36,-36 C36,-66 72,-64 72,-36 L72,0" fill="none" stroke="#E86853" stroke-width="21" stroke-linecap="round" stroke-linejoin="round"/><path d="M0,0 L0,-58 M0,-36 C0,-64 36,-66 36,-36 L36,0 M36,-36 C36,-66 72,-64 72,-36 L72,0" fill="none" stroke="#F2AB9D" stroke-width="4.6" stroke-linecap="round" stroke-linejoin="round" transform="translate(-2.5 -3)" opacity="0.7"/></g></g><g filter="url(#lg-sh)"><path d="M0,14 C-16,4 -18,-8 -10,-13 C-5,-16 0,-12 0,-8 C0,-12 5,-16 10,-13 C18,-8 16,4 0,14Z" fill="#EC5A3C" transform="translate(776.9 244) scale(2.0) rotate(14)"/></g></g></svg>