<svg xmlns="http://www.w3.org/2000/svg" viewBox="0 0 640 520" width="640" height="520"><defs><filter id="bs0-gr" x="-20%" y="-20%" width="140%" height="150%" color-interpolation-filters="sRGB"><feTurbulence type="fractalNoise" baseFrequency="0.900" numOctaves="2" seed="240" result="n"/><feColorMatrix in="n" type="matrix" values="0 0 0 0 0.24 0 0 0 0 0.14 0 0 0 0 0.08 0.70 0 0 0 -0.39" result="d"/><feColorMatrix in="n" type="matrix" values="0 0 0 0 1 0 0 0 0 0.98 0 0 0 0 0.92 -0.75 0 0 0 0.28" result="l"/><feTurbulence type="fractalNoise" baseFrequency="0.160 0.700" numOctaves="3" seed="251" result="f"/><feColorMatrix in="f" type="matrix" values="0 0 0 0 1 0 0 0 0 0.98 0 0 0 0 0.93 0.91 0 0 0 -0.57" result="fl"/><feColorMatrix in="f" type="matrix" values="0 0 0 0 0.3 0 0 0 0 0.18 0 0 0 0 0.1 -0.78 0 0 0 0.21" result="fd"/><feTurbulence type="fractalNoise" baseFrequency="0.0180" numOctaves="2" seed="247" result="m"/><feColorMatrix in="m" type="matrix" values="0 0 0 0 0.3 0 0 0 0 0.17 0 0 0 0 0.08 0.09 0 0 0 -0.04" result="md"/><feColorMatrix in="m" type="matrix" values="0 0 0 0 1 0 0 0 0 0.97 0 0 0 0 0.9 -0.09 0 0 0 0.05" result="ml"/><feTurbulence type="fractalNoise" baseFrequency="0.560 0.208" numOctaves="3" seed="259" result="f2"/><feColorMatrix in="f2" type="matrix" values="0 0 0 0 1 0 0 0 0 0.98 0 0 0 0 0.93 0.65 0 0 0 -0.42" result="fl2"/><feMerge result="g"><feMergeNode in="md"/><feMergeNode in="ml"/><feMergeNode in="fd"/><feMergeNode in="fl"/><feMergeNode in="fl2"/><feMergeNode in="d"/><feMergeNode in="l"/></feMerge><feComposite in="g" in2="SourceGraphic" operator="in" result="gc"/><feMerge><feMergeNode in="SourceGraphic"/><feMergeNode in="gc"/></feMerge></filter><filter id="bs0-sh" x="-25%" y="-25%" width="150%" height="160%" color-interpolation-filters="sRGB"><feGaussianBlur in="SourceAlpha" stdDeviation="3.5"/><feOffset dx="0" dy="4" result="b"/><feFlood flood-color="#3A2216" flood-opacity="0.33"/><feComposite in2="b" operator="in" result="s"/><feMerge><feMergeNode in="s"/><feMergeNode in="SourceGraphic"/></feMerge></filter><filter id="bs0-sh2" x="-25%" y="-25%" width="150%" height="160%" color-interpolation-filters="sRGB"><feGaussianBlur in="SourceAlpha" stdDeviation="7"/><feOffset dx="0" dy="8" result="b"/><feFlood flood-color="#3A2216" flood-opacity="0.28"/><feComposite in2="b" operator="in" result="s"/><feMerge><feMergeNode in="s"/><feMergeNode in="SourceGraphic"/></feMerge></filter><filter id="bs0-bl" x="-50%" y="-50%" width="200%" height="200%"><feGaussianBlur stdDeviation="6"/></filter><filter id="bs0-cut" x="-20%" y="-20%" width="140%" height="150%" color-interpolation-filters="sRGB"><feMorphology in="SourceAlpha" operator="dilate" radius="2.2" result="dil"/><feTurbulence type="fractalNoise" baseFrequency="0.22" numOctaves="2" seed="242" result="tn"/><feDisplacementMap in="dil" in2="tn" scale="4.0" xChannelSelector="R" yChannelSelector="G" result="rg"/><feFlood flood-color="#FFF8EA" flood-opacity="0.95"/><feComposite in2="rg" operator="in" result="rim"/><feGaussianBlur in="rg" stdDeviation="3.5"/><feOffset dx="0" dy="4" result="b"/><feFlood flood-color="#3A2216" flood-opacity="0.33"/><feComposite in2="b" operator="in" result="s"/><feMerge><feMergeNode in="s"/><feMergeNode in="rim"/><feMergeNode in="SourceGraphic"/></feMerge></filter></defs><g filter="url(#bs0-gr)"><clipPath id="bs0-c"><ellipse cx="320" cy="176" rx="260" ry="72"/></clipPath><g clip-path="url(#bs0-c)"><g filter="url(#bs0-sh)"><path d="M547.6,204C547.1,207.8 548.5,211.6 545.4,215.2C542.3,218.9 535.4,222.4 529,225.8C522.6,229.3 515.9,232.8 506.8,235.9C497.8,239 487,242 474.7,244.3C462.4,246.7 447.2,248.3 433,250C418.8,251.6 404.5,252.9 389.7,254.4C374.9,255.8 359.9,258 344.4,258.4C328.8,258.9 312,257.8 296.2,257.2C280.4,256.6 265.3,255.7 249.7,254.8C234.1,253.9 216.6,253.5 202.7,251.7C188.8,249.9 178.2,246.7 166.3,244.1C154.4,241.5 140.8,239.2 131.4,236.2C122.1,233.1 116.4,229.4 110.1,225.9C103.8,222.5 96.6,218.9 93.8,215.3C91,211.6 93.2,207.8 93.2,204C93.2,200.2 91.5,196.4 93.8,192.7C96.1,189 100.1,185.1 106.8,181.7C113.4,178.3 124.1,175.3 133.8,172.2C143.4,169.2 152.9,166 164.6,163.5C176.4,160.9 190,158.6 204.2,156.9C218.5,155.3 234.9,154.7 250.2,153.5C265.4,152.3 280,150.3 295.7,149.7C311.4,149.2 328.3,149.5 344.1,150.1C359.9,150.7 375.7,151.7 390.5,153.1C405.3,154.4 418.6,156.4 432.8,158.1C447.1,159.8 464,160.9 476.2,163.3C488.3,165.6 496.6,169.2 505.9,172.3C515.2,175.4 524.9,178.5 532,181.8C539,185.2 545.8,188.9 548.4,192.6C551,196.3 548.1,200.2 547.6,204Z" fill="#EDE3D2"/><path d="M531.9,199C531.8,202.2 528.6,205.3 525.7,208.5C522.8,211.6 520.7,214.9 514.7,217.8C508.6,220.7 498.9,223.3 489.5,225.8C480.2,228.3 469.5,230.6 458.5,232.8C447.6,235 436.3,237.1 423.9,239C411.4,240.9 398.1,242.9 383.7,244.1C369.3,245.2 352.9,245.6 337.4,245.9C321.9,246.2 305.7,246.4 290.6,245.8C275.5,245.2 261.3,243.6 246.7,242.6C232.2,241.5 216.5,240.9 203.4,239.3C190.3,237.7 178.8,235.4 167.9,233.1C157.1,230.9 146.9,228.5 138.3,225.8C129.7,223.2 122.5,220.4 116.3,217.5C110.1,214.6 105.7,211.6 101.1,208.5C96.5,205.4 89.6,202.2 88.5,199C87.4,195.8 91,192.4 94.5,189.2C97.9,186 102.8,182.8 109.2,179.8C115.6,176.8 122.8,173.8 132.7,171.3C142.6,168.8 156.5,167 168.5,165C180.5,163 191.8,160.9 204.6,159.2C217.5,157.4 231,155.7 245.3,154.6C259.7,153.4 275.3,152.7 290.7,152.3C306,151.9 322,151.7 337.5,152C353,152.3 369.4,152.7 383.5,154C397.6,155.3 409,157.9 422.1,159.6C435.3,161.3 450.5,162.3 462.5,164.3C474.5,166.3 485.3,168.8 494.2,171.5C503,174.1 510.4,177.1 515.8,180.1C521.2,183.1 523.8,186.4 526.5,189.5C529.2,192.6 532,195.8 531.9,199Z" fill="#FFFDF7"/></g></g><g filter="url(#bs0-sh)"><path d="M104,214C104.4,206.4 119.9,197.4 127.8,190.2C135.7,183 143.6,176.2 151.6,171C159.5,165.8 167.4,163.6 175.3,159C183.3,154.4 191.2,147.7 199.1,143.5C207,139.4 215,136.7 222.9,134.3C230.8,131.8 238.7,131.4 246.7,128.8C254.6,126.2 262.5,120.3 270.4,118.8C278.4,117.3 286.3,120.5 294.2,119.8C302.1,119.1 310.1,114.7 318,114.7C325.9,114.6 333.9,118.1 341.8,119.5C349.7,120.8 357.6,121.7 365.6,122.7C373.5,123.8 381.4,124.2 389.3,125.5C397.3,126.8 405.2,127.1 413.1,130.6C421,134 429,141.8 436.9,146.4C444.8,151 452.7,154 460.7,158.2C468.6,162.3 476.5,166.1 484.4,171.1C492.4,176.1 500.3,181.1 508.2,188.3C516.1,195.4 531.6,206 532,214C532.4,222 546.3,230.3 510.6,236C474.9,241.7 382.2,248 318,248C253.8,248 161.1,241.7 125.4,236C89.7,230.3 103.6,221.6 104,214Z" fill="#FFFDF7"/><path d="M150,196 Q200,132 300,118 Q220,150 176,206Z" fill="#FFFDF7" opacity="0.95"/><path d="M360,124 Q450,150 500,200 Q440,176 380,160Z" fill="#EDE3D2" opacity="0.7"/><path d="M354.9,118C355.5,119.5 353.7,121.3 350.7,122.7C347.7,124.1 342.5,125.4 337.1,126.3C331.6,127.1 324.3,127.8 318,127.8C311.7,127.8 304.8,127 299.1,126.2C293.5,125.3 286.5,124.2 284.2,122.9C281.9,121.5 284.9,119.6 285.4,118C285.9,116.4 284.9,114.9 287,113.5C289.2,112.1 293.2,110.3 298.4,109.5C303.6,108.7 311.5,108.7 318,108.7C324.5,108.7 332.6,108.7 337.4,109.6C342.2,110.4 343.9,112.4 346.8,113.8C349.7,115.3 354.2,116.5 354.9,118Z" fill="#EDE3D2" opacity="0.6"/><rect x="307.6" y="210.5" width="6" height="6" fill="#DCD8D2" transform="rotate(45 310.6 213.5)"/><circle cx="310.6" cy="211.5" r="1.4" fill="#FFFDF7"/><rect x="458.5" y="190.4" width="6" height="6" fill="#DCD8D2" transform="rotate(45 461.5 193.4)"/><circle cx="461.5" cy="191.4" r="1.4" fill="#FFFDF7"/><rect x="208.5" y="160.7" width="6" height="6" fill="#DCD8D2" transform="rotate(45 211.5 163.7)"/><circle cx="211.5" cy="161.7" r="1.4" fill="#FFFDF7"/><rect x="433.9" y="169.4" width="6" height="6" fill="#DCD8D2" transform="rotate(45 436.9 172.4)"/><circle cx="436.9" cy="170.4" r="1.4" fill="#FFFDF7"/><rect x="178.6" y="212.2" width="6" height="6" fill="#DCD8D2" transform="rotate(45 181.6 215.2)"/><circle cx="181.6" cy="213.2" r="1.4" fill="#FFFDF7"/><rect x="209" y="188.3" width="6" height="6" fill="#DCD8D2" transform="rotate(45 212 191.3)"/><circle cx="212" cy="189.3" r="1.4" fill="#FFFDF7"/><rect x="355.9" y="171.3" width="6" height="6" fill="#DCD8D2" transform="rotate(45 358.9 174.3)"/><circle cx="358.9" cy="172.3" r="1.4" fill="#FFFDF7"/><rect x="351.4" y="138.7" width="6" height="6" fill="#DCD8D2" transform="rotate(45 354.4 141.7)"/><circle cx="354.4" cy="139.7" r="1.4" fill="#FFFDF7"/><rect x="323.9" y="206.3" width="6" height="6" fill="#DCD8D2" transform="rotate(45 326.9 209.3)"/><circle cx="326.9" cy="207.3" r="1.4" fill="#FFFDF7"/><rect x="433.2" y="207.2" width="6" height="6" fill="#DCD8D2" transform="rotate(45 436.2 210.2)"/><circle cx="436.2" cy="208.2" r="1.4" fill="#FFFDF7"/><rect x="264.7" y="199.1" width="6" height="6" fill="#DCD8D2" transform="rotate(45 267.7 202.1)"/><circle cx="267.7" cy="200.1" r="1.4" fill="#FFFDF7"/><rect x="238.1" y="142.5" width="6" height="6" fill="#DCD8D2" transform="rotate(45 241.1 145.5)"/><circle cx="241.1" cy="143.5" r="1.4" fill="#FFFDF7"/><rect x="218.8" y="157" width="6" height="6" fill="#DCD8D2" transform="rotate(45 221.8 160)"/><circle cx="221.8" cy="158" r="1.4" fill="#FFFDF7"/><rect x="417.9" y="171.4" width="6" height="6" fill="#DCD8D2" transform="rotate(45 420.9 174.4)"/><circle cx="420.9" cy="172.4" r="1.4" fill="#FFFDF7"/><rect x="466.7" y="212" width="6" height="6" fill="#DCD8D2" transform="rotate(45 469.7 215)"/><circle cx="469.7" cy="213" r="1.4" fill="#FFFDF7"/><rect x="233.1" y="168.7" width="6" height="6" fill="#DCD8D2" transform="rotate(45 236.1 171.7)"/><circle cx="236.1" cy="169.7" r="1.4" fill="#FFFDF7"/><rect x="189.3" y="182.9" width="6" height="6" fill="#DCD8D2" transform="rotate(45 192.3 185.9)"/><circle cx="192.3" cy="183.9" r="1.4" fill="#FFFDF7"/><rect x="352.8" y="183" width="6" height="6" fill="#DCD8D2" transform="rotate(45 355.8 186)"/><circle cx="355.8" cy="184" r="1.4" fill="#FFFDF7"/><rect x="196.6" y="185.5" width="6" height="6" fill="#DCD8D2" transform="rotate(45 199.6 188.5)"/><circle cx="199.6" cy="186.5" r="1.4" fill="#FFFDF7"/><rect x="203.7" y="207.1" width="6" height="6" fill="#DCD8D2" transform="rotate(45 206.7 210.1)"/><circle cx="206.7" cy="208.1" r="1.4" fill="#FFFDF7"/><rect x="308.4" y="137.3" width="6" height="6" fill="#DCD8D2" transform="rotate(45 311.4 140.3)"/><circle cx="311.4" cy="138.3" r="1.4" fill="#FFFDF7"/><rect x="463.6" y="216.7" width="6" height="6" fill="#DCD8D2" transform="rotate(45 466.6 219.7)"/><circle cx="466.6" cy="217.7" r="1.4" fill="#FFFDF7"/></g></g></svg>